<svg width="50" height="50" viewBox="0 0 50 50" fill="none" xmlns="http://www.w3.org/2000/svg">
<path d="M49.8634 14.7002C49.7463 12.0435 49.3167 10.217 48.7012 8.63437C48.0663 6.95443 47.0896 5.45038 45.8099 4.20005C44.5595 2.93027 43.0456 1.94359 41.3851 1.31862C39.7933 0.703188 37.9764 0.273568 35.3197 0.156434C32.6431 0.029379 31.7934 0 25.005 0C18.2165 0 17.3668 0.029379 14.7002 0.146513C12.0435 0.263648 10.217 0.69365 8.63475 1.3087C6.95443 1.94359 5.45038 2.92035 4.20005 4.20005C2.93027 5.45038 1.94397 6.96435 1.31862 8.62483C0.703188 10.217 0.273568 12.0336 0.156434 14.6903C0.029379 17.3668 0 18.2165 0 25.005C0 31.7934 0.029379 32.6431 0.146513 35.3097C0.263648 37.9664 0.693649 39.7929 1.30908 41.3755C1.94397 43.0555 2.93027 44.5595 4.20005 45.8099C5.45038 47.0797 6.96435 48.0663 8.62483 48.6913C10.217 49.3067 12.0336 49.7364 14.6906 49.8535C17.3569 49.971 18.207 50 24.9954 50C31.7839 50 32.6336 49.971 35.3002 49.8535C37.9569 49.7364 39.7834 49.3067 41.3656 48.6913C44.7259 47.3921 47.3826 44.7354 48.6818 41.3755C49.2968 39.7834 49.7268 37.9664 49.8439 35.3097C49.9611 32.6431 49.9905 31.7934 49.9905 25.005C49.9905 18.2165 49.9805 17.3668 49.8634 14.7002ZM45.3608 35.1144C45.2532 37.5563 44.843 38.8749 44.5012 39.754C43.661 41.9322 41.9322 43.661 39.754 44.5012C38.8749 44.843 37.5467 45.2532 35.1144 45.3604C32.4771 45.4779 31.6862 45.5069 25.0149 45.5069C18.3436 45.5069 17.5427 45.4779 14.915 45.3604C12.4731 45.2532 11.1545 44.843 10.2754 44.5012C9.19143 44.1005 8.20475 43.4657 7.40389 42.6354C6.57365 41.8246 5.93875 40.8479 5.53813 39.7639C5.19627 38.8848 4.78611 37.5563 4.67889 35.1243C4.56138 32.4871 4.53238 31.6957 4.53238 25.0244C4.53238 18.3531 4.56138 17.5522 4.67889 14.9249C4.78611 12.483 5.19627 11.1644 5.53813 10.2853C5.93875 9.20097 6.57365 8.21467 7.41381 7.41343C8.22421 6.58318 9.20097 5.94829 10.2853 5.54805C11.1644 5.20619 12.4929 4.79603 14.9249 4.68843C17.5622 4.5713 18.3535 4.54192 25.0244 4.54192C31.7057 4.54192 32.4966 4.5713 35.1243 4.68843C37.5662 4.79603 38.8848 5.20619 39.7639 5.54805C40.8479 5.94829 41.8345 6.58318 42.6354 7.41343C43.4657 8.22421 44.1005 9.20097 44.5012 10.2853C44.843 11.1644 45.2532 12.4926 45.3608 14.9249C45.4779 17.5622 45.5073 18.3531 45.5073 25.0244C45.5073 31.6957 45.4779 32.4771 45.3608 35.1144Z" fill="#1D181C"/>
<path d="M25.005 12.1606C17.914 12.1606 12.1606 17.9136 12.1606 25.005C12.1606 32.0964 17.914 37.8493 25.005 37.8493C32.0964 37.8493 37.8493 32.0964 37.8493 25.005C37.8493 17.9136 32.0964 12.1606 25.005 12.1606ZM25.005 33.3368C20.4047 33.3368 16.6732 29.6057 16.6732 25.005C16.6732 20.4043 20.4047 16.6732 25.005 16.6732C29.6057 16.6732 33.3368 20.4043 33.3368 25.005C33.3368 29.6057 29.6057 33.3368 25.005 33.3368Z" fill="#1D181C"/>
<path d="M41.3558 11.6521C41.3558 13.308 40.0131 14.6507 38.3568 14.6507C36.7009 14.6507 35.3583 13.308 35.3583 11.6521C35.3583 9.99584 36.7009 8.65356 38.3568 8.65356C40.0131 8.65356 41.3558 9.99584 41.3558 11.6521Z" fill="#1D181C"/>
</svg>
