<svg width="52" height="30" viewBox="0 0 52 30" fill="none" xmlns="http://www.w3.org/2000/svg">
<path d="M42.675 17.2026C41.8436 16.1526 42.0814 15.6855 42.675 14.7469C42.6857 14.7362 49.5493 5.2519 50.2564 2.03547L50.2607 2.03333C50.6121 0.861184 50.2607 -0.000244141 48.5614 -0.000244141H42.9386C41.5071 -0.000244141 40.8471 0.739041 40.4936 1.56618C40.4936 1.56618 37.6307 8.41904 33.5807 12.8612C32.2736 14.1448 31.6693 14.5562 30.9557 14.5562C30.6043 14.5562 30.0579 14.1448 30.0579 12.9726V2.03333C30.0579 0.627613 29.6571 -0.000244141 28.4721 -0.000244141H19.6307C18.7329 -0.000244141 18.1993 0.65547 18.1993 1.26618C18.1993 2.59904 20.2243 2.90547 20.4343 6.65547V14.7919C20.4343 16.5748 20.1107 16.9026 19.3929 16.9026C17.4814 16.9026 12.8421 10.0219 10.0929 2.1469C9.53786 0.619041 8.99571 0.00189856 7.55357 0.00189856H1.92857C0.323571 0.00189856 0 0.741184 0 1.56833C0 3.02976 1.91143 10.2962 8.88857 19.8962C13.5386 26.449 20.0871 29.9998 26.0443 29.9998C29.625 29.9998 30.0621 29.2112 30.0621 27.8548C30.0621 21.5933 29.7386 21.0019 31.5321 21.0019C32.3636 21.0019 33.795 21.4133 37.1379 24.574C40.9586 28.3219 41.5864 29.9998 43.725 29.9998H49.3479C50.9507 29.9998 51.7629 29.2112 51.2957 27.6555C50.2264 24.3833 43.0007 17.6526 42.675 17.2026Z" fill="#1D181C"/>
</svg>
